<svg xmlns="http://www.w3.org/2000/svg" width="720" height="440" font-family="sans-serif">
<rect width="720" height="440" fill="white"/>
<text x="360.0" y="20" font-size="15" text-anchor="middle" font-weight="bold">축 수별 통신 왕복(messages) — 1안 vs 2안</text>
<line x1="78" y1="388.0" x2="570" y2="388.0" stroke="#eee"/>
<text x="70" y="392.0" font-size="11" text-anchor="end" fill="#555">0</text>
<line x1="78" y1="317.2" x2="570" y2="317.2" stroke="#eee"/>
<text x="70" y="321.2" font-size="11" text-anchor="end" fill="#555">173</text>
<line x1="78" y1="246.4" x2="570" y2="246.4" stroke="#eee"/>
<text x="70" y="250.4" font-size="11" text-anchor="end" fill="#555">347</text>
<line x1="78" y1="175.6" x2="570" y2="175.6" stroke="#eee"/>
<text x="70" y="179.6" font-size="11" text-anchor="end" fill="#555">520</text>
<line x1="78" y1="104.8" x2="570" y2="104.8" stroke="#eee"/>
<text x="70" y="108.8" font-size="11" text-anchor="end" fill="#555">694</text>
<line x1="78" y1="34.0" x2="570" y2="34.0" stroke="#eee"/>
<text x="70" y="38.0" font-size="11" text-anchor="end" fill="#555">867</text>
<text x="78.0" y="406" font-size="11" text-anchor="middle" fill="#555">4</text>
<text x="148.3" y="406" font-size="11" text-anchor="middle" fill="#555">8</text>
<text x="218.6" y="406" font-size="11" text-anchor="middle" fill="#555">12</text>
<text x="288.9" y="406" font-size="11" text-anchor="middle" fill="#555">16</text>
<text x="359.1" y="406" font-size="11" text-anchor="middle" fill="#555">20</text>
<text x="429.4" y="406" font-size="11" text-anchor="middle" fill="#555">24</text>
<text x="499.7" y="406" font-size="11" text-anchor="middle" fill="#555">28</text>
<text x="570.0" y="406" font-size="11" text-anchor="middle" fill="#555">32</text>
<text x="324" y="430" font-size="12" text-anchor="middle">축 개수</text>
<text x="16" y="211" font-size="12" text-anchor="middle" transform="rotate(-90 16 211)">messages(전송 건수)</text>
<polyline points="78.0,370.4 148.3,336.6 218.6,296.6 288.9,269.6 359.1,100.7 429.4,211.7 499.7,50.9 570.0,138.2" fill="none" stroke="#2c7fb8" stroke-width="2.5"/>
<circle cx="78.0" cy="370.4" r="3.2" fill="#2c7fb8"/>
<circle cx="148.3" cy="336.6" r="3.2" fill="#2c7fb8"/>
<circle cx="218.6" cy="296.6" r="3.2" fill="#2c7fb8"/>
<circle cx="288.9" cy="269.6" r="3.2" fill="#2c7fb8"/>
<circle cx="359.1" cy="100.7" r="3.2" fill="#2c7fb8"/>
<circle cx="429.4" cy="211.7" r="3.2" fill="#2c7fb8"/>
<circle cx="499.7" cy="50.9" r="3.2" fill="#2c7fb8"/>
<circle cx="570.0" cy="138.2" r="3.2" fill="#2c7fb8"/>
<text x="578.0" y="142.2" font-size="12" fill="#2c7fb8" font-weight="bold">1안</text>
<polyline points="78.0,371.3 148.3,343.9 218.6,341.1 288.9,353.3 359.1,336.6" fill="none" stroke="#d95f0e" stroke-width="2.5"/>
<circle cx="78.0" cy="371.3" r="3.2" fill="#d95f0e"/>
<circle cx="148.3" cy="343.9" r="3.2" fill="#d95f0e"/>
<circle cx="218.6" cy="341.1" r="3.2" fill="#d95f0e"/>
<circle cx="288.9" cy="353.3" r="3.2" fill="#d95f0e"/>
<circle cx="359.1" cy="336.6" r="3.2" fill="#d95f0e"/>
<text x="367.1" y="340.6" font-size="12" fill="#d95f0e" font-weight="bold">2안</text>
</svg>