<svg xmlns="http://www.w3.org/2000/svg" width="720" height="440" font-family="sans-serif">
<rect width="720" height="440" fill="white"/>
<text x="360.0" y="20" font-size="15" text-anchor="middle" font-weight="bold">축 수별 협상 시간 — 1안 vs 2안</text>
<line x1="78" y1="402.6" x2="570" y2="402.6" stroke="#eee"/>
<text x="70" y="406.6" font-size="11" text-anchor="end" fill="#555">10ms</text>
<line x1="78" y1="308.4" x2="570" y2="308.4" stroke="#eee"/>
<text x="70" y="312.4" font-size="11" text-anchor="end" fill="#555">100ms</text>
<line x1="78" y1="214.2" x2="570" y2="214.2" stroke="#eee"/>
<text x="70" y="218.2" font-size="11" text-anchor="end" fill="#555">1s</text>
<line x1="78" y1="120.0" x2="570" y2="120.0" stroke="#eee"/>
<text x="70" y="124.0" font-size="11" text-anchor="end" fill="#555">10s</text>
<line x1="78" y1="25.8" x2="570" y2="25.8" stroke="#eee"/>
<text x="70" y="29.8" font-size="11" text-anchor="end" fill="#555">100s</text>
<text x="78.0" y="406" font-size="11" text-anchor="middle" fill="#555">4</text>
<text x="113.1" y="406" font-size="11" text-anchor="middle" fill="#555">6</text>
<text x="148.3" y="406" font-size="11" text-anchor="middle" fill="#555">8</text>
<text x="183.4" y="406" font-size="11" text-anchor="middle" fill="#555">10</text>
<text x="218.6" y="406" font-size="11" text-anchor="middle" fill="#555">12</text>
<text x="253.7" y="406" font-size="11" text-anchor="middle" fill="#555">14</text>
<text x="288.9" y="406" font-size="11" text-anchor="middle" fill="#555">16</text>
<text x="324.0" y="406" font-size="11" text-anchor="middle" fill="#555">18</text>
<text x="359.1" y="406" font-size="11" text-anchor="middle" fill="#555">20</text>
<text x="394.3" y="406" font-size="11" text-anchor="middle" fill="#555">22</text>
<text x="429.4" y="406" font-size="11" text-anchor="middle" fill="#555">24</text>
<text x="464.6" y="406" font-size="11" text-anchor="middle" fill="#555">26</text>
<text x="499.7" y="406" font-size="11" text-anchor="middle" fill="#555">28</text>
<text x="534.9" y="406" font-size="11" text-anchor="middle" fill="#555">30</text>
<text x="570.0" y="406" font-size="11" text-anchor="middle" fill="#555">32</text>
<text x="324" y="430" font-size="12" text-anchor="middle">축 개수</text>
<text x="16" y="211" font-size="12" text-anchor="middle" transform="rotate(-90 16 211)">wall time(로그)</text>
<polyline points="78.0,382.1 113.1,363.9 148.3,339.7 183.4,326.5 218.6,316.1 253.7,313.4 288.9,304.5 324.0,259.2 359.1,267.5 394.3,293.9 429.4,282.0 464.6,278.1 499.7,261.3 534.9,278.8 570.0,271.1" fill="none" stroke="#2c7fb8" stroke-width="2.5"/>
<circle cx="78.0" cy="382.1" r="3.2" fill="#2c7fb8"/>
<circle cx="113.1" cy="363.9" r="3.2" fill="#2c7fb8"/>
<circle cx="148.3" cy="339.7" r="3.2" fill="#2c7fb8"/>
<circle cx="183.4" cy="326.5" r="3.2" fill="#2c7fb8"/>
<circle cx="218.6" cy="316.1" r="3.2" fill="#2c7fb8"/>
<circle cx="253.7" cy="313.4" r="3.2" fill="#2c7fb8"/>
<circle cx="288.9" cy="304.5" r="3.2" fill="#2c7fb8"/>
<circle cx="324.0" cy="259.2" r="3.2" fill="#2c7fb8"/>
<circle cx="359.1" cy="267.5" r="3.2" fill="#2c7fb8"/>
<circle cx="394.3" cy="293.9" r="3.2" fill="#2c7fb8"/>
<circle cx="429.4" cy="282.0" r="3.2" fill="#2c7fb8"/>
<circle cx="464.6" cy="278.1" r="3.2" fill="#2c7fb8"/>
<circle cx="499.7" cy="261.3" r="3.2" fill="#2c7fb8"/>
<circle cx="534.9" cy="278.8" r="3.2" fill="#2c7fb8"/>
<circle cx="570.0" cy="271.1" r="3.2" fill="#2c7fb8"/>
<text x="578.0" y="275.1" font-size="12" fill="#2c7fb8" font-weight="bold">1안</text>
<polyline points="78.0,388.0 113.1,375.4 148.3,349.6 183.4,333.6 218.6,309.3 253.7,265.6 288.9,208.9 324.0,152.8 359.1,94.0 394.3,34.0" fill="none" stroke="#d95f0e" stroke-width="2.5"/>
<circle cx="78.0" cy="388.0" r="3.2" fill="#d95f0e"/>
<circle cx="113.1" cy="375.4" r="3.2" fill="#d95f0e"/>
<circle cx="148.3" cy="349.6" r="3.2" fill="#d95f0e"/>
<circle cx="183.4" cy="333.6" r="3.2" fill="#d95f0e"/>
<circle cx="218.6" cy="309.3" r="3.2" fill="#d95f0e"/>
<circle cx="253.7" cy="265.6" r="3.2" fill="#d95f0e"/>
<circle cx="288.9" cy="208.9" r="3.2" fill="#d95f0e"/>
<circle cx="324.0" cy="152.8" r="3.2" fill="#d95f0e"/>
<circle cx="359.1" cy="94.0" r="3.2" fill="#d95f0e"/>
<circle cx="394.3" cy="34.0" r="3.2" fill="#d95f0e"/>
<text x="402.3" y="38.0" font-size="12" fill="#d95f0e" font-weight="bold">2안</text>
</svg>